# xmcd
#
# Track frame offsets: 
#        150
#        10752
#        22623
#        37183
#        48553
#        57571
#        68288
#        81522
#        91839
#        103414
#        115362
#        126613
#        137009
#        149190
#        160095
#        173094
#        186628
#        197869
#        208224
#        218468
#        229289
#        240163
#        251814
#        263260
#
# Disc length: 3649 seconds
#
# Revision: 2
# Processed by: cddbd v1.5.2PL0 Copyright (c) Steve Scherf et al.
# Submitted via: ExactAudioCopy v1.1
#
DISCID=630e3f18
DTITLE=Various Artist - King New Breed R&B (Kent) - Volume 2
DYEAR=2003
DGENRE=R&B
TTITLE0=Hal Hardy with the Billy Cox Band - Love Man (mono)
TTITLE1=Freddy King - I'm Tore Down (mono)
TTITLE2=Lee 'Shot' Williams - When You Move, You Lose (mono)
TTITLE3=Mel Williams - Send Me A Picture, Baby (mono)
TTITLE4=The Hi Tones - Let's Have A Good Time (mono)
TTITLE5=The King Pins - Two Hearts, Two Kisses (mono)
TTITLE6=Little Willie John - All Around The World (mono)
TTITLE7=Dolph Prince - You're Gonna Drive Me Crazy (mono)
TTITLE8=Guitar Crusher - Why Oh Why (mono)
TTITLE9=The '5' Royales - It Hurts Inside (mono)
TTITLE10=Bobby and The Expressions - Slooptime USA (mono)
TTITLE11=James Duncan - Stop Talking To Your Child (Mother-In-Law) (mo
TTITLE11=no)
TTITLE12=Eugene Church - Geneva (mono)
TTITLE13=Herb Hardesty featuring Walter Nelson vocal - Why Did We Have
TTITLE13=To Part (mono)
TTITLE14=Johnny Watson - Gangster Of Love (mono)
TTITLE15=El Pauling and The Royalton - I'm A Cool Teenagerv
TTITLE16=Donnie Elbert - Wild Child (mono)
TTITLE17=Lee Williams and The Moonrays - I'm So In Love (mono)
TTITLE18=The Five Fabulous Demons - You'd Better Come Home (mono)
TTITLE19=Billy Conn - I Promise You (I Won't Mention Your Name) (mono)
TTITLE20=Lula Reed and Her Little Teeners - Say Hey Pretty Baby (mono)
TTITLE21=Willie Wright and His Sparklers - Your Letter (mono)
TTITLE22=Eddie Kirk - Let Me Walk With You (mono)
TTITLE23=Teddy Humphries - What Makes You So Tough (mono)
EXTD=
EXTT0=
EXTT1=
EXTT2=
EXTT3=
EXTT4=
EXTT5=
EXTT6=
EXTT7=
EXTT8=
EXTT9=
EXTT10=
EXTT11=
EXTT12=
EXTT13=
EXTT14=
EXTT15=
EXTT16=
EXTT17=
EXTT18=
EXTT19=
EXTT20=
EXTT21=
EXTT22=
EXTT23=
PLAYORDER=
